<svg xmlns="http://www.w3.org/2000/svg" version="1.1" xmlns:xlink="http://www.w3.org/1999/xlink" xmlns:svgjs="http://svgjs.dev/svgjs" width="2000" height="2250" viewBox="0 0 2000 2250"><g transform="matrix(1,0,0,1,0,0)"><svg viewBox="0 0 320 360" data-background-color="#ffffff" preserveAspectRatio="xMidYMid meet" height="2250" width="2000" xmlns="http://www.w3.org/2000/svg" xmlns:xlink="http://www.w3.org/1999/xlink"><g id="tight-bounds" transform="matrix(1,0,0,1,0,0)"><svg viewBox="0 0 320 360" height="360" width="320"><g><svg></svg></g><g><svg viewBox="0 0 320 360" height="360" width="320"><g><path d="M160 42.18c72.417 0 131.943 56.114 137.63 127.014h22.37c-1.137-17.82-5.308-34.882-12.133-51.185-7.962-18.957-19.716-36.398-34.502-50.805-14.787-14.787-31.848-26.161-50.806-34.503-20.095-8.341-40.948-12.891-62.559-12.891-21.611 0-42.464 4.171-62.559 12.512-18.957 7.962-36.398 19.716-50.806 34.503-14.787 14.787-26.161 31.848-34.502 50.805-6.825 16.303-10.995 33.744-12.133 51.185h22.37c5.687-70.521 65.213-126.635 137.63-126.635zM160 318.199c-72.417 0-131.943-56.114-137.63-127.014h-22.37c1.137 17.82 5.308 34.882 12.133 51.185 7.962 18.957 19.716 36.398 34.502 50.805 14.787 14.787 31.848 26.161 50.806 34.503 19.716 8.341 40.569 12.512 62.559 12.512 21.991 0 42.464-4.171 62.559-12.512 18.957-7.962 36.398-19.716 50.806-34.503 14.787-14.787 26.161-31.848 34.502-50.805 6.825-16.303 10.995-33.744 12.133-51.185h-22.37c-5.687 70.9-65.213 127.014-137.63 127.014z" fill="#0074d9" fill-rule="nonzero" stroke="none" stroke-width="1" stroke-linecap="butt" stroke-linejoin="miter" stroke-miterlimit="10" stroke-dasharray="" stroke-dashoffset="0" font-family="none" font-weight="none" font-size="none" text-anchor="none" style="mix-blend-mode: normal" data-fill-palette-color="tertiary"></path></g><g transform="matrix(1,0,0,1,56,126.54605263157895)"><svg viewBox="0 0 208 106.90789473684211" height="106.90789473684211" width="208"><g><svg viewBox="0 0 208 106.90789473684211" height="106.90789473684211" width="208"><g><svg viewBox="0 0 208 106.90789473684211" height="106.90789473684211" width="208"><g><svg viewBox="0 0 208 106.90789473684211" height="106.90789473684211" width="208"><g id="textblocktransform"><svg viewBox="0 0 208 106.90789473684211" height="106.90789473684211" width="208" id="textblock"><g><svg viewBox="0 0 208 106.90789473684211" height="106.90789473684211" width="208"><g transform="matrix(1,0,0,1,0,0)"><svg width="208" viewBox="-0.6 -31.25 60.800000000000004 31.25" height="106.90789473684211" data-palette-color="#0074d9"><path d="M11.1-4.95L9.95 0-0.6 0 7.5-31.25 22.95-31.25 31.05 0 20.5 0 19.35-4.95 11.1-4.95ZM15.5-21.65L14.95-21.65 12.9-12.9 17.5-12.9 15.5-21.65ZM54.8-10.4L60.2 0 49.2 0 45.1-9.3 42.95-9.3 42.95 0 32.95 0 32.95-31.25 48.7-31.25Q59.45-31.25 59.45-20.3L59.45-20.3Q59.45-12.8 54.8-10.4L54.8-10.4ZM45.25-23.25L42.95-23.25 42.95-17 45.25-17Q47.05-17 47.87-17.38 48.7-17.75 48.7-19.1L48.7-19.1 48.7-21.15Q48.7-22.5 47.87-22.88 47.05-23.25 45.25-23.25L45.25-23.25Z" opacity="1" transform="matrix(1,0,0,1,0,0)" fill="#0074d9" class="wordmark-text-0" data-fill-palette-color="primary" id="text-0"></path></svg></g></svg></g></svg></g></svg></g><g></g></svg></g></svg></g></svg></g></svg></g><defs></defs></svg><rect width="320" height="360" fill="none" stroke="none" visibility="hidden"></rect></g></svg></g></svg>